<?xml version="1.0" encoding="UTF-8" standalone="no"?>
<!-- Created with Inkscape (http://www.inkscape.org/) -->

<svg
   xmlns:dc="http://purl.org/dc/elements/1.1/"
   xmlns:cc="http://creativecommons.org/ns#"
   xmlns:rdf="http://www.w3.org/1999/02/22-rdf-syntax-ns#"
   xmlns:svg="http://www.w3.org/2000/svg"
   xmlns="http://www.w3.org/2000/svg"
   xmlns:sodipodi="http://sodipodi.sourceforge.net/DTD/sodipodi-0.dtd"
   xmlns:inkscape="http://www.inkscape.org/namespaces/inkscape"
   width="210mm"
   height="297mm"
   viewBox="0 0 744.09448819 1052.3622047"
   id="svg7073"
   version="1.1"
   inkscape:version="0.91 r13725"
   sodipodi:docname="logo-notext.svg">
  <defs
     id="defs7075" />
  <sodipodi:namedview
     id="base"
     pagecolor="#ffffff"
     bordercolor="#666666"
     borderopacity="1.0"
     inkscape:pageopacity="0.0"
     inkscape:pageshadow="2"
     inkscape:zoom="0.175"
     inkscape:cx="-898.48382"
     inkscape:cy="277.08461"
     inkscape:document-units="px"
     inkscape:current-layer="layer1"
     showgrid="false"
     inkscape:window-width="1873"
     inkscape:window-height="1176"
     inkscape:window-x="47"
     inkscape:window-y="24"
     inkscape:window-maximized="1" />
  <metadata
     id="metadata7078">
    <rdf:RDF>
      <cc:Work
         rdf:about="">
        <dc:format>image/svg+xml</dc:format>
        <dc:type
           rdf:resource="http://purl.org/dc/dcmitype/StillImage" />
        <dc:title />
      </cc:Work>
    </rdf:RDF>
  </metadata>
  <g
     inkscape:label="Layer 1"
     inkscape:groupmode="layer"
     id="layer1">
    <g
       id="g3375">
      <g
         id="g6217"
         transform="matrix(4.5667379,0,0,4.5667379,-16973.177,-32380.513)">
        <path
           inkscape:export-ydpi="300"
           inkscape:export-xdpi="300"
           style="display:inline;opacity:1;fill:#ffffff;fill-opacity:1;stroke:none;stroke-width:4.82940865;stroke-linecap:square;stroke-miterlimit:4;stroke-dasharray:none;stroke-opacity:1"
           d="m 3784.3229,7565.0954 c -34.9016,-19.7582 -96.7769,-74.3129 -128.5613,-113.3511 -41.0204,-50.3818 -81.3866,-123.395 -101.3777,-183.3707 -22.0505,-66.1541 -33.759,-124.9225 -37.7885,-189.6717 -3.409,-54.7763 -7.7521,-165.6614 -6.5396,-166.9652 0.485,-0.5214 19.186,-4.2428 41.5572,-8.2694 22.3713,-4.0258 50.4359,-9.6615 62.3669,-12.5231 46.0612,-11.0468 98.288,-32.0896 153.5677,-61.8737 14.5635,-7.8459 28.2101,-14.2665 30.3258,-14.2665 2.1157,0 13.4242,5.1673 25.1301,11.4814 51.962,28.0308 102.7319,49.4004 144.4426,60.8 15.3361,4.191 54.1902,12.1122 112.2635,22.8873 4.688,0.8695 6.1521,2.1736 6.1327,5.4607 -0.017,2.3755 -0.8635,27.7018 -1.8875,56.2832 -4.2072,117.4153 -7.4064,154.785 -17.2713,201.7443 -20.4992,97.5883 -45.6445,158.8407 -97.6236,237.8072 -38.481,58.4575 -116.3539,133.1759 -162.0406,155.4741 -10.5515,5.1488 -10.7123,5.1381 -22.6964,-1.6468 z"
           id="path6071"
           inkscape:connector-curvature="0" />
        <path
           inkscape:connector-curvature="0"
           id="path6073"
           d="m 3784.7497,7553.3396 c -33.8001,-19.1347 -93.7226,-71.9676 -124.5039,-109.7737 -39.7257,-48.7917 -78.818,-119.5006 -98.1781,-177.5834 -21.3546,-64.0663 -32.6936,-120.9799 -36.5959,-183.6856 -3.3014,-53.0475 -7.5074,-160.433 -6.3332,-161.6957 0.4697,-0.5049 18.5805,-4.1089 40.2456,-8.0084 21.6653,-3.8987 48.8441,-9.3566 60.3986,-12.1278 44.6075,-10.6982 95.186,-31.0769 148.721,-59.921 14.1039,-7.5982 27.3198,-13.8162 29.3687,-13.8162 2.0489,0 13.0005,5.0042 24.337,11.119 50.322,27.1462 99.4896,47.8413 139.8839,58.8811 14.8521,4.0588 52.4799,11.73 108.7204,22.165 4.54,0.8421 5.9579,2.105 5.9391,5.2884 -0.016,2.3005 -0.8362,26.8275 -1.8279,54.5068 -4.0744,113.7096 -7.1726,149.8999 -16.7262,195.3772 -19.8522,94.5083 -44.2039,153.8276 -94.5425,230.3018 -37.2666,56.6126 -112.6817,128.9728 -156.9265,150.5673 -10.2185,4.9863 -10.3743,4.9759 -21.9801,-1.5948 z"
           style="display:inline;opacity:1;fill:#ffffff;fill-opacity:1;stroke:#000000;stroke-width:4.67698956;stroke-linecap:square;stroke-miterlimit:4;stroke-dasharray:none;stroke-opacity:1"
           inkscape:export-xdpi="300"
           inkscape:export-ydpi="300" />
        <path
           inkscape:export-ydpi="300"
           inkscape:export-xdpi="300"
           sodipodi:nodetypes="cssscccsssccsssssscscccscsssssssccssscsssscccscscccccccssccsccsscccscsccsscssssccssscccccscccsccccsccsscscscscc"
           style="display:inline;opacity:1;fill:#000000;fill-opacity:1;stroke:#000000;stroke-width:1.64724052;stroke-opacity:1"
           d="m 3593.7789,7002.2131 c 0.037,-3.4097 2.3527,-7.1584 2.3527,-7.1584 1.2125,-1.8995 4.7611,-5.0651 7.8459,-6.4411 1.0746,-0.4795 2.9855,-1.1237 2.9855,-2.7485 0,-2.503 1.6397,-3.6973 3.0474,-2.2211 0.8143,0.8532 0.9313,1.5239 0.435,2.4942 -0.8058,1.5815 0.055,2.4923 3.0669,3.2488 2.7505,0.6926 5.6786,2.9698 7.9105,6.1504 1.0156,1.4491 2.3145,2.633 2.8871,2.633 0.7357,0 1.0407,0.784 1.0407,2.6683 0,1.4676 0.2314,2.9109 0.5143,3.2088 0.2827,0.2964 0.1668,0.9799 -0.2583,1.5167 -0.5922,0.7486 -0.5101,0.9758 0.3527,0.9758 0.6634,0 1.126,-0.5967 1.126,-1.4555 0,-1.1316 0.4628,-1.4545 2.0815,-1.4545 1.5684,0 2.082,0.3341 2.082,1.3558 0,1.5461 3.4185,2.2835 10.5859,2.2835 3.7814,0 4.1158,-0.1356 3.7906,-1.4312 -0.243,-0.9751 0.063,-1.5696 0.9596,-1.8683 2.0864,-0.6941 3.9985,0.244 3.6168,1.7734 -0.2479,0.9936 0.1682,1.4683 1.6145,1.8489 1.199,0.3166 2.0447,0.2113 2.1987,-0.273 0.138,-0.4336 0.5461,-0.5943 0.9082,-0.3606 0.3613,0.2346 1.7783,0.5718 3.1479,0.7486 2.1955,0.2876 2.4496,0.1526 2.1385,-1.0898 -0.2577,-1.0356 0.079,-1.5303 1.247,-1.8373 2.2011,-0.5791 3.7923,0.1912 3.7923,1.8379 0,0.7582 0.4682,1.3775 1.0407,1.3775 0.5781,0 1.0407,-0.6458 1.0407,-1.4554 0,-1.1695 0.4627,-1.4555 2.3534,-1.4555 1.9316,0 2.4311,0.327 2.7889,1.8192 0.753,3.1487 3.9089,2.4468 9.4469,-2.0978 4.5686,-3.7487 4.916,-3.8996 8.1019,-3.5463 1.8312,0.2049 3.8224,0.8217 4.425,1.3693 1.5033,1.3721 1.9863,1.2724 3.6806,-0.7643 1.1131,-1.3368 1.9311,-1.6693 3.3768,-1.3696 1.6948,0.3508 1.9079,0.714 1.9079,3.257 0,2.6008 0.2295,2.964 2.5104,3.9631 1.3801,0.6048 2.9043,0.9405 3.3872,0.7471 0.4824,-0.1961 1.2432,-1.9527 1.6893,-3.9046 1.2616,-5.5149 5.124,-10.2667 10.8222,-13.3197 4.1433,-2.2185 4.8023,-2.8338 4.603,-4.2949 -0.1289,-0.939 0.1736,-1.9705 0.6706,-2.2916 1.3555,-0.8797 2.73,0.7051 2.2722,2.6215 -0.3522,1.4685 0.132,1.9359 4.0452,3.8942 5.6749,2.841 11.6328,9.2596 11.6328,12.5319 0,1.2154 0.346,2.8884 0.7688,3.7165 0.5051,0.9895 0.7315,6.8515 0.6591,17.0533 -0.069,9.7817 0.1429,15.5464 0.572,15.5464 0.065,24.1224 0.8799,53.3446 15.849,54.9228 42.7613,4.7777 91.4418,31.8025 101.6134,-45.0206 0.1683,-5.2031 0.5929,-10.2789 0.9427,-11.2772 1.066,-3.0402 1.0769,-24.1385 0.019,-24.8453 -0.6467,-0.4305 -0.6652,-0.6016 -0.065,-0.6104 0.4595,0 1.9429,-1.5326 3.2959,-3.3913 1.9027,-2.6129 2.4605,-4.0618 2.4605,-6.3895 0,-2.6621 1.0334,-12.7094 6.2555,-60.8188 1.6348,-15.0563 3.3216,-31.3384 3.707,-35.7722 0.1803,-4.0386 0.2772,-6.0732 0.2948,-7.1713 -0.03,-1.2063 0.1442,-2.4072 0.3933,-2.6683 0.4493,-0.4707 0.564,1.1462 0.5744,8.1351 0,2.0023 0.5811,8.5511 1.285,14.5561 0.7033,6.0032 1.7782,15.8275 2.3889,21.8291 0.6111,6.0041 1.4027,12.3905 1.7593,14.1906 0.3565,1.8024 0.8542,5.731 1.1056,8.7327 0.2517,3.0015 0.6395,5.7849 0.8629,6.1847 0.2227,0.4017 0.3155,1.6225 0.2061,2.7175 -0.1097,1.0954 0.2751,5.6795 0.8549,10.187 1.299,10.103 2.0108,17.6911 1.9292,20.5707 -0.043,1.417 0.2909,3.4289 1.9159,4.601 l 1.9778,2.416 1.3474,-2.0538 c 1.328,-2.0202 1.7741,-5.3768 4.4328,-33.3442 0.9771,-10.275 1.8258,-18.1762 3.0101,-28.0158 3.0227,-25.1232 4.4145,-39.754 4.5268,-47.6038 0.068,-4.6821 0.7314,-0.9704 1.0408,5.8161 0.3,6.5937 1.5493,18.7023 4.2351,41.0608 0.5537,4.6017 1.3532,11.6435 1.7766,15.6444 0.4241,4.0033 0.9168,7.7689 1.0941,8.3689 0.178,0.6007 0.4597,3.2882 0.6265,5.971 0.1668,2.6845 0.7837,8.2517 1.3715,12.3721 0.5879,4.1207 1.2525,9.7601 1.4777,12.5336 0.3264,4.0274 0.8339,5.6756 2.5214,8.1872 1.1621,1.7286 2.3761,3.1424 2.6981,3.1424 0.3216,0 0.2762,0.6046 -0.1004,1.3429 -0.3761,0.7397 -0.5792,2.2948 -0.4497,3.4562 0.1283,1.1638 0.2749,6.372 0.324,11.5745 0.048,5.2033 0.3553,9.8997 0.6792,10.4363 0.6929,1.1454 10.2074,1.9133 10.821,0.8722 0.2185,-0.3703 18.7926,-0.6731 24.5091,-0.6731 5.7168,0 10.718,-0.2112 11.1145,-0.4674 0.6364,-0.4129 0.8768,-9.7054 0.6452,-24.9721 -0.036,-2.3761 0.2065,-3.7151 0.6234,-3.4459 1.0598,0.6875 1.3769,-1.1928 2.5048,-14.8598 0.5779,-7.0041 1.3794,-15.9318 1.7815,-19.8396 0.7836,-3.0519 0.015,-7.3109 0.6005,-9.8098 0.8266,-1.4876 0.9472,-0.8819 0.7711,3.8836 -0.06,1.6394 0.364,7.0434 0.9433,12.0075 0.5791,4.9664 1.2392,11.6482 1.4665,14.8509 0.5407,7.6193 1.7547,14.2627 2.5164,13.7672 0.3334,-0.2152 0.3713,1.7374 0.3991,4.2628 0.028,2.5254 0.1156,6.0642 0.1954,7.866 0.081,1.8001 0.2131,6.4112 0.2963,10.2475 l 0.1512,6.972 9.4107,-0.1359 c 5.2823,-0.076 1.4429,-0.055 5.0381,-0.1065 4.5789,0.1699 3.7454,53.6552 2.5144,58.279 -1.3615,5.1144 -232.1561,3.9166 -232.1561,3.9166 0,0 -171.2064,-2.1712 -179.2396,-4.0812 -3.4192,-0.8129 0.4988,-61.7152 1.5949,-96.3031 z"
           id="path6075"
           inkscape:connector-curvature="0" />
        <path
           inkscape:export-ydpi="300"
           inkscape:export-xdpi="300"
           style="display:inline;fill:#000000;fill-opacity:1;fill-rule:nonzero;stroke:#ffffff;stroke-width:6.0081954;stroke-linecap:round;stroke-linejoin:round;stroke-miterlimit:4;stroke-dasharray:none;stroke-opacity:1"
           d="m 3797.8571,6909.1108 -8.2296,7.351 c -4.4913,4.0295 -15.2132,13.6131 -23.8065,21.2911 -8.5668,7.6505 -15.6023,14.0487 -15.6023,14.1848 0,0.1362 1.5059,1.9059 3.3231,3.9752 6.2307,6.97 9.112,12.9053 11.0071,22.7069 1.2981,6.7518 1.7654,63.8086 2.1029,80.1445 l 0.2596,13.3955 -72.2524,-0.027 c -35.6446,-0.027 -52.0393,-3.2399 -64.8381,-14.3212 l -2.9855,-2.5866 -13.0842,15.8459 c -7.1914,8.7122 -16.4852,19.875 -20.639,24.7759 -5.2961,6.262 -6.8796,8.168 -7.1133,9.1753 l 0,0.054 c -0.026,0.027 -0.026,0.054 -0.026,0.081 -0.1558,0.9255 1.0125,2.3688 7.1133,9.5836 4.1797,4.9281 13.4737,16.0634 20.6648,24.7759 l 13.0584,15.8459 2.9855,-2.5865 c 12.8248,-11.054 29.2195,-14.2667 64.864,-14.3212 l 72.2525,-0.027 -0.2856,253.7163 c -0.3115,16.3354 -0.7788,22.8698 -2.1028,29.6221 -1.8952,9.7743 -4.7765,15.7097 -10.9813,22.707 -1.8432,2.042 -3.323,3.839 -3.323,3.9751 0,0.136 7.0095,6.5351 15.6023,14.1839 8.5673,7.678 19.2891,17.2617 23.8064,21.2912 l 8.2037,7.3512 0,0 8.2037,-7.3512 c 4.5168,-4.0295 15.2388,-13.6132 23.8319,-21.2912 8.5671,-7.6488 15.6027,-14.0479 15.6027,-14.1839 0,-0.1361 -1.5058,-1.9331 -3.3231,-3.9751 -6.2306,-6.9973 -9.1124,-12.9327 -11.0075,-22.707 -1.3241,-6.7523 -1.7654,-13.2867 -2.1029,-29.6221 l -0.2596,-253.7163 72.2529,0.027 c 35.6442,0.054 52.0393,3.2672 64.8377,14.3212 l 2.9856,2.5865 13.0843,-15.8459 c 7.1652,-8.7125 16.4593,-19.8478 20.6391,-24.7759 5.2961,-6.262 6.8797,-8.1679 7.1133,-9.1753 l 0,-0.027 c 0,-0.027 0,-0.054 0.026,-0.081 0.052,-0.3267 -0.053,-0.6806 -0.4154,-1.3068 -0.7528,-1.2526 -2.6481,-3.4851 -6.7239,-8.3042 -4.1538,-4.9008 -13.4479,-16.0637 -20.6389,-24.7758 l -13.0586,-15.8458 -3.0115,2.5865 c -12.7984,11.0811 -29.1934,14.2939 -64.8376,14.3211 l -72.2529,0.027 0.2596,-13.3954 c 0.3375,-16.3361 0.8047,-73.3927 2.1029,-80.1445 1.8952,-9.8016 4.7769,-15.737 11.0073,-22.707 1.8174,-2.0421 3.3231,-3.839 3.3231,-3.9752 0,-0.1361 -7.0354,-6.5343 -15.6025,-14.1848 -8.5933,-7.6778 -19.2892,-17.2614 -23.806,-21.291 l -8.2296,-7.3511 z"
           id="path6077"
           inkscape:connector-curvature="0"
           inkscape:transform-center-x="0.0018221413"
           inkscape:transform-center-y="74.754993"
           sodipodi:nodetypes="cccscccccccccccccccccccccsccccccsccccccccccscccccccccccscccc" />
        <path
           inkscape:export-ydpi="300"
           inkscape:export-xdpi="300"
           sodipodi:nodetypes="cccccc"
           style="display:inline;opacity:1;fill:#000000;fill-opacity:1;stroke:#000000;stroke-width:1.64724052;stroke-opacity:1"
           d="m 3909.5671,6891.3142 c -2.4754,-0.2107 -2.5038,-0.5752 0,-0.7091 0.013,-3.6135 1.142,-3.337 1.1813,0.026 2.8399,0.1429 2.8137,0.4741 -0.027,0.7288 -0.197,7.3213 -0.8318,8.1622 -1.1511,-0.045 z"
           id="path6079"
           inkscape:connector-curvature="0" />
        <path
           inkscape:connector-curvature="0"
           id="path6081"
           d="m 3881.2676,6889.8302 c -2.4755,-0.2107 -2.5038,-0.5752 0,-0.7091 0.013,-3.6135 1.1419,-3.337 1.1814,0.026 2.8398,0.1427 2.8137,0.4741 -0.027,0.7286 -0.1971,7.3215 -0.832,8.1622 -1.1513,-0.044 z"
           style="display:inline;opacity:1;fill:#000000;fill-opacity:1;stroke:#000000;stroke-width:1.64724052;stroke-opacity:1"
           sodipodi:nodetypes="cccccc"
           inkscape:export-xdpi="300"
           inkscape:export-ydpi="300" />
        <path
           inkscape:connector-curvature="0"
           id="path6083"
           d="m 3979.8932,6963.4604 c 0.8202,-1.0039 0.66,-2.3725 1.0233,-1.9408 0.7537,0.2333 0.7911,0.2421 0.4604,0.1408 -0.1911,-0.059 0.2215,1.2096 0.035,2.1263 -0.2068,1.7534 -1.4655,2.1343 -2.5138,0.295 -0.6559,-0.4839 -1.1057,-0.541 -1.1514,-0.8275 -0.074,-0.4615 0.7934,-1.4027 1.2461,0.025 z"
           style="display:inline;opacity:1;fill:#000000;fill-opacity:1;stroke:#000000;stroke-width:0.82145697;stroke-opacity:1"
           sodipodi:nodetypes="ccsccscc"
           inkscape:export-xdpi="300"
           inkscape:export-ydpi="300" />
        <g
           style="display:inline"
           inkscape:export-ydpi="300"
           inkscape:export-xdpi="300"
           id="g6085"
           transform="matrix(0.70876452,0,0,0.70876452,9872.09,7476.3594)">
          <g
             id="g6087"
             transform="translate(-20,0)">
            <g
               transform="matrix(8.47155,0,0,3.7072877,-6251.1444,3223.5643)"
               style="font-style:normal;font-weight:normal;font-size:40px;line-height:125%;font-family:sans-serif;letter-spacing:0px;word-spacing:0px;fill:#000000;fill-opacity:1;stroke:none;stroke-width:0.37989718;stroke-linecap:butt;stroke-linejoin:miter;stroke-miterlimit:4;stroke-dasharray:none;stroke-opacity:1"
               id="g6089"
               inkscape:export-xdpi="300"
               inkscape:export-ydpi="300">
              <path
                 inkscape:connector-curvature="0"
                 d="m -299.25664,-972.83885 c 0,-0.6 0.16,-0.88 0.28,-0.88 0.16,0 0.24,0.08 0.24,0.4 l 0,1.2 0.32,0 0.36,-3.64 c -0.44,0 -0.96,-0.28 -1.12,-0.68 -0.4,0.4 -1.08,0.4 -1.72,0.4 -0.32,0 -0.64,-0.04 -0.92,-0.08 -0.28,-0.08 -0.52,-0.16 -0.72,-0.32 -0.28,0.4 -0.92,0.76 -1.44,0.76 l 0.56,3.4 0.32,0 0,-1.28 c 0,-0.2 0.08,-0.36 0.2,-0.36 0.08,0 0.28,0.12 0.28,0.52 l 0,8.92 c 0,1.84 -0.28,2.32 -0.64,2.64 0.32,0.24 0.44,0.56 0.44,0.84 0,0.28 -0.16,0.52 -0.4,0.76 0.28,0.32 0.6,0.88 0.6,2.56 l 0,8.4 c 0,2.52 2.24,3.52 2.72,3.52 0.16,-0.28 0.48,-0.4 1.28,-0.4 0.44,0 0.72,0.04 0.96,0.08 0.24,0.08 0.4,0.16 0.52,0.32 1,0 2.84,-1.28 2.84,-4 l 0,-7.24 c 0,-1.56 0.32,-2.76 0.76,-3.04 -0.32,-0.2 -0.56,-0.48 -0.56,-0.8 0,-0.32 0.12,-0.64 0.48,-0.88 -0.44,-0.36 -0.68,-1.12 -0.68,-2.32 l 0,-9.2 c 0,-0.4 0.08,-0.52 0.24,-0.52 0.16,0 0.2,0.12 0.2,0.56 l 0,1.2 0.32,0 0.4,-3.68 c -0.44,0 -0.92,-0.32 -1.12,-0.76 -0.28,0.36 -0.84,0.4 -1.32,0.4 -0.2,0 -0.44,-0.04 -0.64,-0.08 -0.24,-0.08 -0.4,-0.16 -0.56,-0.32 -0.16,0.4 -0.6,0.68 -0.96,0.68 l 0.16,3.64 0.32,0 0,-1.12 c 0,-0.4 0.16,-0.52 0.32,-0.52 0.16,0 0.28,0.12 0.28,0.64 l 0,8.48 c 0,1.72 -0.28,2.56 -0.64,2.84 0.32,0.16 0.48,0.6 0.48,0.88 0,0.36 -0.24,0.68 -0.48,0.84 0.36,0.32 0.64,1.36 0.64,2.16 l 0,8.64 c 0,1.04 -0.36,1.52 -1.36,1.52 -1.04,0 -1.24,-0.52 -1.24,-1.52 l 0,-6.84 c 0,-3 0.48,-3.68 0.8,-3.96 -0.32,-0.16 -0.56,-0.56 -0.56,-0.84 0,-0.28 0.16,-0.64 0.56,-0.84 -0.36,-0.36 -0.8,-1 -0.8,-2.72 l 0,-8.36 z"
                 style="font-style:normal;font-variant:normal;font-weight:500;font-stretch:normal;font-family:'Mesquite Std';-inkscape-font-specification:'Mesquite Std Medium';letter-spacing:0.72994095px;fill:#000000;fill-opacity:1;stroke:none;stroke-width:0.37989718;stroke-miterlimit:4;stroke-dasharray:none;stroke-opacity:1"
                 id="path6091" />
            </g>
            <g
               transform="matrix(8.47155,0,0,3.7072877,-6153.0702,3223.5643)"
               style="font-style:normal;font-weight:normal;font-size:40px;line-height:125%;font-family:sans-serif;letter-spacing:0px;word-spacing:0px;fill:#000000;fill-opacity:1;stroke:none;stroke-width:0.37989718;stroke-linecap:butt;stroke-linejoin:miter;stroke-miterlimit:4;stroke-dasharray:none;stroke-opacity:1"
               id="g6093"
               inkscape:export-xdpi="300"
               inkscape:export-ydpi="300">
              <path
                 inkscape:connector-curvature="0"
                 d="m -303.45664,-972.47885 0.32,0 0,-1.16 c 0,-0.56 0.12,-0.68 0.32,-0.68 0.2,0 0.2,0.08 0.2,0.6 l 0,8.44 c 0,1.8 -0.28,2.64 -0.72,2.96 0.32,0.28 0.52,0.56 0.52,0.88 0,0.36 -0.24,0.72 -0.52,0.88 0.4,0.4 0.72,1.08 0.72,3.56 l 0,8.08 c 0,0.4 -0.04,0.68 -0.24,0.68 -0.16,0 -0.28,-0.16 -0.28,-0.48 l 0,-1.4 -0.24,0 -0.4,3.56 c 0.36,0 1.04,0.44 1.2,0.8 0.32,-0.24 0.96,-0.4 1.56,-0.4 0.28,0 0.64,0.04 0.92,0.12 0.32,0.04 0.64,0.16 0.8,0.28 0.16,-0.32 0.72,-0.72 1.2,-0.72 l -0.36,-3.36 -0.28,0 0,1.24 c 0,0.4 -0.12,0.48 -0.28,0.48 -0.2,0 -0.24,-0.12 -0.24,-0.52 l 0,-8.16 0.92,-3 0.08,0 1.68,11 c 0.08,0.48 0.08,0.6 -0.08,0.68 -0.2,0.08 -0.36,0 -0.48,-0.4 l -0.32,-1.28 -0.24,0 0.28,3.36 c 0.52,-0.04 1.16,0.32 1.4,0.68 0.32,-0.28 1.12,-0.4 1.64,-0.4 0.28,0 0.6,0.04 0.92,0.12 0.32,0.08 0.6,0.16 0.72,0.28 0.16,-0.28 0.6,-0.72 0.92,-0.72 l -0.64,-3.2 -0.24,0 0,1.32 c 0,0.28 -0.04,0.4 -0.16,0.4 -0.16,0 -0.28,-0.12 -0.32,-0.48 l -1.44,-9.4 c -0.24,-1.44 0,-2.12 0.32,-2.48 -0.32,-0.16 -0.56,-0.32 -0.68,-0.76 -0.08,-0.28 0.08,-0.76 0.44,-0.96 -0.84,-1.08 -1.16,-2.32 -1.28,-3.6 l 2.44,-7.76 c 0.16,-0.52 0.32,-0.6 0.48,-0.56 0.16,0.04 0.2,0.2 0.12,0.44 l -0.32,1.2 0.32,0 1.2,-3.56 c -0.44,0 -1,-0.32 -1.2,-0.56 -0.2,0.16 -0.68,0.4 -1.04,0.4 -0.16,0 -0.36,-0.08 -0.56,-0.16 -0.16,-0.08 -0.32,-0.16 -0.44,-0.24 -0.16,0.28 -0.8,0.56 -1.36,0.56 l -0.8,3.52 0.28,0.04 0.44,-1.44 c 0.12,-0.36 0.28,-0.4 0.44,-0.32 0.16,0.08 0.16,0.28 0.08,0.6 l -3.4,10.64 -0.12,0 0,-10.36 c 0,-0.52 0.12,-0.8 0.36,-0.8 0.16,0 0.28,0.16 0.28,0.44 l 0.08,1.2 0.24,0 0.4,-3.52 c -0.4,0.04 -0.96,-0.24 -1.12,-0.56 -0.36,0.24 -1.24,0.4 -1.76,0.4 -0.28,0 -0.6,-0.04 -0.92,-0.12 -0.28,-0.08 -0.52,-0.16 -0.68,-0.28 -0.2,0.28 -0.92,0.56 -1.36,0.56 l 0.28,3.4 z"
                 style="font-style:normal;font-variant:normal;font-weight:500;font-stretch:normal;font-family:'Mesquite Std';-inkscape-font-specification:'Mesquite Std Medium';letter-spacing:0.72994095px;fill:#000000;fill-opacity:1;stroke:none;stroke-width:0.37989718;stroke-miterlimit:4;stroke-dasharray:none;stroke-opacity:1"
                 id="path6095" />
            </g>
          </g>
          <g
             id="g6097"
             transform="translate(20,0)">
            <g
               id="g6099">
              <g
                 inkscape:export-ydpi="300"
                 inkscape:export-xdpi="300"
                 id="g6101"
                 style="font-style:normal;font-weight:normal;font-size:40px;line-height:125%;font-family:sans-serif;letter-spacing:0px;word-spacing:0px;fill:#000000;fill-opacity:1;stroke:none;stroke-width:0.37989718;stroke-linecap:butt;stroke-linejoin:miter;stroke-miterlimit:4;stroke-dasharray:none;stroke-opacity:1"
                 transform="matrix(8.47155,0,0,3.7072877,-5670.4962,3255.7384)">
                <path
                   id="path6103"
                   style="font-style:normal;font-variant:normal;font-weight:500;font-stretch:normal;font-family:'Mesquite Std';-inkscape-font-specification:'Mesquite Std Medium';letter-spacing:0.72994095px;fill:#000000;fill-opacity:1;stroke:none;stroke-width:0.37989718;stroke-miterlimit:4;stroke-dasharray:none;stroke-opacity:1"
                   d="m -326.15108,-957.63745 c 0,0.6 -0.12,0.84 -0.32,0.84 -0.16,0 -0.28,-0.12 -0.28,-0.52 l 0,-1.24 -0.28,0 -0.36,3.32 c 0.44,0 1.2,0.44 1.32,0.8 0.36,-0.28 1.08,-0.4 1.72,-0.4 0.36,0 0.68,0.04 1,0.08 0.28,0.08 0.56,0.16 0.72,0.32 0.08,-0.48 0.68,-0.76 1.12,-0.76 l -0.44,-3.4 -0.28,0 0,1.44 c 0,0.2 -0.12,0.32 -0.32,0.32 -0.2,0 -0.28,-0.08 -0.28,-0.36 l 0,-8.32 c 0,-2.72 0.44,-3.44 0.76,-3.64 -0.32,-0.2 -0.48,-0.56 -0.48,-0.8 0,-0.28 0.12,-0.64 0.36,-0.8 -0.24,-0.16 -0.64,-0.84 -0.64,-3.04 l 0,-8.12 c 0,-0.44 0.08,-0.72 0.24,-0.72 0.2,0 0.24,0.16 0.24,0.52 l 0,1.12 0.28,0 0.32,-3.44 c -0.44,0 -1.04,-0.36 -1.16,-0.68 -0.32,0.24 -1.2,0.4 -1.72,0.4 -0.2,0 -0.56,-0.04 -0.88,-0.12 -0.32,-0.08 -0.6,-0.2 -0.76,-0.28 -0.2,0.24 -0.96,0.56 -1.48,0.56 l -1.24,11.72 -0.24,0 -1.2,-11.72 c -0.56,0 -1.28,-0.28 -1.48,-0.56 -0.28,0.16 -1.04,0.4 -1.68,0.4 -0.28,0 -0.64,-0.04 -0.92,-0.12 -0.32,-0.08 -0.56,-0.2 -0.72,-0.28 -0.16,0.24 -0.88,0.68 -1.36,0.68 l 0.28,3.36 0.36,0 0,-1.08 c 0,-0.4 0.12,-0.6 0.32,-0.6 0.16,0 0.24,0.12 0.24,0.92 l 0,8.08 c 0,2.2 -0.4,2.76 -0.68,3 0.36,0.24 0.44,0.44 0.44,0.8 0,0.36 -0.12,0.56 -0.4,0.8 0.28,0.28 0.64,0.8 0.64,3.12 l 0,8.72 c 0,0.44 -0.04,0.48 -0.24,0.48 -0.16,0 -0.24,-0.08 -0.24,-0.4 l 0,-1.44 -0.32,0 -0.36,3.52 c 0.4,0 1.12,0.4 1.32,0.72 0.2,-0.2 0.68,-0.4 1.12,-0.4 0.28,0 0.52,0.04 0.76,0.12 0.24,0.04 0.4,0.16 0.48,0.28 0.16,-0.44 0.72,-0.76 1.16,-0.76 l -0.56,-3.36 -0.32,0 0,1.32 c 0,0.4 -0.08,0.44 -0.28,0.44 -0.2,0 -0.32,-0.08 -0.32,-0.52 l 0,-7.76 c 0,-1.8 0.28,-3.64 0.6,-4.08 -0.28,-0.24 -0.36,-0.44 -0.36,-0.8 0,-0.32 0.12,-0.6 0.32,-0.8 -0.16,-0.2 -0.56,-0.96 -0.56,-2.88 l 0,-4.24 0.24,0 0.48,4.88 c 0.16,1.56 0.16,1.96 0.04,2.2 0.24,0.24 0.44,0.52 0.44,0.84 0,0.32 -0.12,0.6 -0.36,0.8 0.16,0.24 0.32,0.68 0.6,3.16 l 1.2,10.8 c 0.24,0 0.72,0.36 0.92,0.76 0.16,-0.4 0.56,-0.76 0.84,-0.76 l 1.24,-11.2 c 0.2,-1.64 0.36,-2.48 0.6,-2.76 -0.28,-0.12 -0.44,-0.56 -0.44,-0.88 0,-0.28 0.2,-0.6 0.48,-0.76 -0.08,-0.24 -0.12,-1.28 0,-2.24 l 0.56,-4.84 0.2,0 0,4.16 c 0,1.68 -0.36,2.72 -0.56,2.96 0.32,0.2 0.36,0.56 0.36,0.8 0,0.36 -0.2,0.64 -0.36,0.8 0.24,0.24 0.6,1.16 0.56,3.44 l 0,8.08 z"
                   inkscape:connector-curvature="0" />
              </g>
              <g
                 inkscape:export-ydpi="300"
                 inkscape:export-xdpi="300"
                 id="g6105"
                 style="font-style:normal;font-weight:normal;font-size:40px;line-height:125%;font-family:sans-serif;letter-spacing:0px;word-spacing:0px;fill:#000000;fill-opacity:1;stroke:none;stroke-width:0.37989718;stroke-linecap:butt;stroke-linejoin:miter;stroke-miterlimit:4;stroke-dasharray:none;stroke-opacity:1"
                 transform="matrix(8.47155,0,0,3.7072877,-5815.1699,3223.5643)">
                <path
                   id="path6107"
                   style="font-style:normal;font-variant:normal;font-weight:500;font-stretch:normal;font-family:'Mesquite Std';-inkscape-font-specification:'Mesquite Std Medium';letter-spacing:0.72994095px;fill:#000000;fill-opacity:1;stroke:none;stroke-width:0.37989718;stroke-miterlimit:4;stroke-dasharray:none;stroke-opacity:1"
                   d="m -299.61664,-972.75885 c 0,-1 0.24,-1.6 0.96,-1.6 0.84,0 1.04,0.68 1.04,1.6 l 0,2.88 c 0,0.76 -0.12,1.68 -0.36,2.2 0.84,0.36 1.36,0.76 1.36,3.04 l 0.32,0 c 0,-2.08 0.28,-2.68 1.32,-3 -0.24,-0.24 -0.44,-0.92 -0.44,-2.24 l 0,-3.2 c 0,-1.12 0.16,-2.12 0.36,-2.44 -0.44,0 -0.88,-0.24 -1,-0.68 -0.2,0.2 -0.36,0.28 -0.76,0.28 -0.36,0 -0.76,-0.12 -1.12,-0.28 -0.36,-0.16 -0.8,-0.24 -1.24,-0.24 -1.96,0 -3.68,0.92 -3.68,5.48 l 0,5.72 c 0,1.72 -0.2,2.8 -0.64,3.16 0.36,0.24 0.52,0.64 0.52,0.88 0,0.28 -0.12,0.64 -0.52,0.92 0.48,0.52 0.64,1.8 0.64,3.64 l 0,6.12 c 0,3.64 1.44,4.76 3.88,4.76 2.8,0 3.72,-1.64 3.72,-4.36 l 0,-2.92 c 0,-1.08 0.08,-1.48 0.28,-1.76 -1,-0.48 -1.36,-0.88 -1.36,-3.28 l -0.28,0 c 0,2.64 -0.32,2.84 -1.32,3.28 0.2,0.24 0.32,0.76 0.32,1.76 l 0,3.8 c 0,1.04 -0.36,1.52 -1,1.52 -0.64,0 -1.04,-0.48 -1.04,-1.52 l 0,-7.4 c 0,-1.96 0.16,-3.2 0.64,-3.64 -0.36,-0.28 -0.52,-0.6 -0.52,-0.92 0,-0.32 0.16,-0.68 0.52,-0.88 -0.32,-0.32 -0.64,-0.84 -0.64,-3.16 l 0.04,-7.52 z"
                   inkscape:connector-curvature="0" />
              </g>
            </g>
          </g>
        </g>
      </g>
    </g>
  </g>
</svg>
